<svg xmlns="http://www.w3.org/2000/svg" width="640" height="420" viewBox="0 0 640 420">
<defs>
<linearGradient id="bg" x1="0" y1="0" x2="1" y2="1">
<stop offset="0" stop-color="#eef2ff"/>
<stop offset="1" stop-color="#e0f2fe"/>
</linearGradient>
</defs>
<rect x="0" y="0" width="640" height="420" rx="24" fill="url(#bg)"/>
<g transform="translate(60,60)">
<rect x="0" y="0" width="520" height="300" rx="18" fill="#ffffff" stroke="#e5e7eb"/>
<g transform="translate(24,24)">
<rect x="0" y="0" width="472" height="56" rx="12" fill="#f3f4f6"/>
<circle cx="20" cy="28" r="10" fill="#34d399"/>
<rect x="40" y="18" width="320" height="20" rx="6" fill="#d1d5db"/>
</g>
<g transform="translate(24,96)">
<rect x="0" y="0" width="472" height="56" rx="12" fill="#f3f4f6"/>
<circle cx="20" cy="28" r="10" fill="#60a5fa"/>
<rect x="40" y="18" width="280" height="20" rx="6" fill="#d1d5db"/>
</g>
<g transform="translate(24,168)">
<rect x="0" y="0" width="472" height="56" rx="12" fill="#f3f4f6"/>
<circle cx="20" cy="28" r="10" fill="#f472b6"/>
<rect x="40" y="18" width="360" height="20" rx="6" fill="#d1d5db"/>
</g>
<g transform="translate(24,240)">
<rect x="0" y="0" width="472" height="56" rx="12" fill="#f3f4f6"/>
<circle cx="20" cy="28" r="10" fill="#f59e0b"/>
<rect x="40" y="18" width="240" height="20" rx="6" fill="#d1d5db"/>
</g>
</g>
</svg>
